<svg width="64" height="64" viewBox="0 0 64 64" fill="none" xmlns="http://www.w3.org/2000/svg">
<path d="M0 64V0H64V64H0Z" fill="#FFD600"/>
<path d="M37.2533 51.4613C38.4836 53.4596 39.8204 55.3742 42.6524 55.3742C45.0311 55.3742 46.2791 54.192 46.2791 52.5564C46.2791 50.5991 44.9884 49.904 42.3716 48.7644L40.9369 48.1529C36.7964 46.3964 34.0427 44.1956 34.0427 39.5467C34.0427 35.2622 37.3227 32.0018 42.448 32.0018C46.0978 32.0018 48.72 33.2658 50.6115 36.576L46.1422 39.4329C45.1591 37.6764 44.096 36.9849 42.448 36.9849C40.7662 36.9849 39.7013 38.0462 39.7013 39.4329C39.7013 41.1467 40.768 41.84 43.2302 42.9013L44.6649 43.5129C49.5449 45.5911 52.2969 47.7138 52.2969 52.4853C52.2969 57.6267 48.2364 60.4444 42.7858 60.4444C37.4542 60.4444 34.4267 57.7689 32.7413 54.4569L37.2533 51.4613ZM16.656 51.6071C17.5556 53.2178 18.9227 54.4569 20.8889 54.4569C22.7698 54.4569 23.8524 53.7138 23.8524 50.8249V32H29.7778V51.7351C29.7778 57.7209 26.3058 60.4444 21.2356 60.4444C16.6542 60.4444 13.3476 57.3404 12 54.4569L16.656 51.6071Z" fill="#000001"/>
</svg>
